<?xml version="1.0" encoding="UTF-8" standalone="no"?>
<!DOCTYPE svg PUBLIC "-//W3C//DTD SVG 1.1//EN"
 "http://www.w3.org/Graphics/SVG/1.1/DTD/svg11.dtd">
<!-- Generated by graphviz version 14.1.1 (20251213.1925)
 -->
<!-- Title: haskell_works Pages: 1 -->
<svg width="1442pt" height="515pt"
 viewBox="0.00 0.00 1442.00 515.00" xmlns="http://www.w3.org/2000/svg" xmlns:xlink="http://www.w3.org/1999/xlink">
<g id="graph0" class="graph" transform="scale(1 1) rotate(0) translate(4 510.8)">
<title>haskell_works</title>
<polygon fill="white" stroke="none" points="-4,4 -4,-510.8 1437.81,-510.8 1437.81,4 -4,4"/>
<text xml:space="preserve" text-anchor="middle" x="716.91" y="-488.4" font-family="Helvetica,sans-Serif" font-size="16.00">haskell&#45;works Package Dependencies</text>
<g id="clust1" class="cluster">
<title>cluster_layer0</title>
<polygon fill="none" stroke="#999999" stroke-dasharray="5,2" points="126,-392.4 126,-471.6 538,-471.6 538,-392.4 126,-392.4"/>
<text xml:space="preserve" text-anchor="middle" x="332" y="-401.2" font-family="Helvetica,sans-Serif" font-size="16.00">Foundation (no hw&#45;* deps)</text>
</g>
<g id="clust2" class="cluster">
<title>cluster_layer1</title>
<polygon fill="none" stroke="#999999" stroke-dasharray="5,2" points="8,-133.6 8,-357.6 293,-357.6 293,-133.6 8,-133.6"/>
<text xml:space="preserve" text-anchor="middle" x="150.5" y="-142.4" font-family="Helvetica,sans-Serif" font-size="16.00">Core</text>
</g>
<g id="clust3" class="cluster">
<title>cluster_layer2</title>
<polygon fill="none" stroke="#999999" stroke-dasharray="5,2" points="445,-139.4 445,-218.6 570,-218.6 570,-139.4 445,-139.4"/>
<text xml:space="preserve" text-anchor="middle" x="507.5" y="-148.2" font-family="Helvetica,sans-Serif" font-size="16.00">Building Blocks</text>
</g>
<g id="clust4" class="cluster">
<title>cluster_layer3</title>
<polygon fill="none" stroke="#999999" stroke-dasharray="5,2" points="683,-133.6 683,-224.4 783,-224.4 783,-133.6 683,-133.6"/>
<text xml:space="preserve" text-anchor="middle" x="733" y="-142.4" font-family="Helvetica,sans-Serif" font-size="16.00">SIMD Layer</text>
</g>
<g id="clust5" class="cluster">
<title>cluster_layer4</title>
<polygon fill="none" stroke="#999999" stroke-dasharray="5,2" points="654,-8 654,-98.8 960,-98.8 960,-8 654,-8"/>
<text xml:space="preserve" text-anchor="middle" x="807" y="-16.8" font-family="Helvetica,sans-Serif" font-size="16.00">Applications</text>
</g>
<g id="clust6" class="cluster">
<title>cluster_external</title>
<polygon fill="none" stroke="#cccccc" stroke-dasharray="5,2" points="594,-259.2 594,-357.6 1401,-357.6 1401,-259.2 594,-259.2"/>
<text xml:space="preserve" text-anchor="middle" x="997.5" y="-287.2" font-family="Helvetica,sans-Serif" font-size="16.00">External hw&#45;* packages</text>
<text xml:space="preserve" text-anchor="middle" x="997.5" y="-268" font-family="Helvetica,sans-Serif" font-size="16.00">(not analyzed)</text>
</g>
<!-- hw_aeson -->
<g id="node1" class="node">
<title>hw_aeson</title>
<path fill="#d4e6f1" stroke="black" d="M185.85,-463.6C185.85,-463.6 146.15,-463.6 146.15,-463.6 140.15,-463.6 134.15,-457.6 134.15,-451.6 134.15,-451.6 134.15,-439.6 134.15,-439.6 134.15,-433.6 140.15,-427.6 146.15,-427.6 146.15,-427.6 185.85,-427.6 185.85,-427.6 191.85,-427.6 197.85,-433.6 197.85,-439.6 197.85,-439.6 197.85,-451.6 197.85,-451.6 197.85,-457.6 191.85,-463.6 185.85,-463.6"/>
<text xml:space="preserve" text-anchor="middle" x="166" y="-448.9" font-family="Helvetica,sans-Serif" font-size="11.00">hw&#45;aeson</text>
<text xml:space="preserve" text-anchor="middle" x="166" y="-435.7" font-family="Helvetica,sans-Serif" font-size="11.00">0.1.8.0</text>
</g>
<!-- hw_hspec_hedgehog -->
<g id="node2" class="node">
<title>hw_hspec_hedgehog</title>
<path fill="#d4e6f1" stroke="black" d="M517.84,-463.6C517.84,-463.6 426.16,-463.6 426.16,-463.6 420.16,-463.6 414.16,-457.6 414.16,-451.6 414.16,-451.6 414.16,-439.6 414.16,-439.6 414.16,-433.6 420.16,-427.6 426.16,-427.6 426.16,-427.6 517.84,-427.6 517.84,-427.6 523.84,-427.6 529.84,-433.6 529.84,-439.6 529.84,-439.6 529.84,-451.6 529.84,-451.6 529.84,-457.6 523.84,-463.6 517.84,-463.6"/>
<text xml:space="preserve" text-anchor="middle" x="472" y="-448.9" font-family="Helvetica,sans-Serif" font-size="11.00">hw&#45;hspec&#45;hedgehog</text>
<text xml:space="preserve" text-anchor="middle" x="472" y="-435.7" font-family="Helvetica,sans-Serif" font-size="11.00">0.1.1.1</text>
</g>
<!-- hw_string_parse -->
<g id="node3" class="node">
<title>hw_string_parse</title>
<path fill="#d4e6f1" stroke="black" d="M383.9,-463.6C383.9,-463.6 316.1,-463.6 316.1,-463.6 310.1,-463.6 304.1,-457.6 304.1,-451.6 304.1,-451.6 304.1,-439.6 304.1,-439.6 304.1,-433.6 310.1,-427.6 316.1,-427.6 316.1,-427.6 383.9,-427.6 383.9,-427.6 389.9,-427.6 395.9,-433.6 395.9,-439.6 395.9,-439.6 395.9,-451.6 395.9,-451.6 395.9,-457.6 389.9,-463.6 383.9,-463.6"/>
<text xml:space="preserve" text-anchor="middle" x="350" y="-448.9" font-family="Helvetica,sans-Serif" font-size="11.00">hw&#45;string&#45;parse</text>
<text xml:space="preserve" text-anchor="middle" x="350" y="-435.7" font-family="Helvetica,sans-Serif" font-size="11.00">0.0.0.5</text>
</g>
<!-- hw_prelude -->
<g id="node4" class="node">
<title>hw_prelude</title>
<path fill="#d4e6f1" stroke="black" d="M274.21,-463.6C274.21,-463.6 227.79,-463.6 227.79,-463.6 221.79,-463.6 215.79,-457.6 215.79,-451.6 215.79,-451.6 215.79,-439.6 215.79,-439.6 215.79,-433.6 221.79,-427.6 227.79,-427.6 227.79,-427.6 274.21,-427.6 274.21,-427.6 280.21,-427.6 286.21,-433.6 286.21,-439.6 286.21,-439.6 286.21,-451.6 286.21,-451.6 286.21,-457.6 280.21,-463.6 274.21,-463.6"/>
<text xml:space="preserve" text-anchor="middle" x="251" y="-448.9" font-family="Helvetica,sans-Serif" font-size="11.00">hw&#45;prelude</text>
<text xml:space="preserve" text-anchor="middle" x="251" y="-435.7" font-family="Helvetica,sans-Serif" font-size="11.00">0.0.4.1</text>
</g>
<!-- hw_prim -->
<g id="node5" class="node">
<title>hw_prim</title>
<path fill="#d5f5e3" stroke="black" d="M272.56,-349.6C272.56,-349.6 241.44,-349.6 241.44,-349.6 235.44,-349.6 229.44,-343.6 229.44,-337.6 229.44,-337.6 229.44,-325.6 229.44,-325.6 229.44,-319.6 235.44,-313.6 241.44,-313.6 241.44,-313.6 272.56,-313.6 272.56,-313.6 278.56,-313.6 284.56,-319.6 284.56,-325.6 284.56,-325.6 284.56,-337.6 284.56,-337.6 284.56,-343.6 278.56,-349.6 272.56,-349.6"/>
<text xml:space="preserve" text-anchor="middle" x="257" y="-334.9" font-family="Helvetica,sans-Serif" font-size="11.00">hw&#45;prim</text>
<text xml:space="preserve" text-anchor="middle" x="257" y="-321.7" font-family="Helvetica,sans-Serif" font-size="11.00">0.6.3.2</text>
</g>
<!-- hw_prim&#45;&gt;hw_hspec_hedgehog -->
<g id="edge1" class="edge">
<title>hw_prim&#45;&gt;hw_hspec_hedgehog</title>
<path fill="none" stroke="#aaaaaa" stroke-dasharray="5,2" d="M284.79,-341.24C315.35,-351.32 365.39,-369.56 405,-392.4 418.61,-400.24 432.49,-410.6 444.07,-420.02"/>
<polygon fill="#aaaaaa" stroke="#aaaaaa" points="441.72,-422.62 451.64,-426.33 446.2,-417.24 441.72,-422.62"/>
<text xml:space="preserve" text-anchor="middle" x="399.55" y="-371.8" font-family="Times,serif" font-size="14.00">test</text>
</g>
<!-- hw_mquery -->
<g id="node6" class="node">
<title>hw_mquery</title>
<path fill="#d5f5e3" stroke="black" d="M172.2,-210.6C172.2,-210.6 125.8,-210.6 125.8,-210.6 119.8,-210.6 113.8,-204.6 113.8,-198.6 113.8,-198.6 113.8,-186.6 113.8,-186.6 113.8,-180.6 119.8,-174.6 125.8,-174.6 125.8,-174.6 172.2,-174.6 172.2,-174.6 178.2,-174.6 184.2,-180.6 184.2,-186.6 184.2,-186.6 184.2,-198.6 184.2,-198.6 184.2,-204.6 178.2,-210.6 172.2,-210.6"/>
<text xml:space="preserve" text-anchor="middle" x="149" y="-195.9" font-family="Helvetica,sans-Serif" font-size="11.00">hw&#45;mquery</text>
<text xml:space="preserve" text-anchor="middle" x="149" y="-182.7" font-family="Helvetica,sans-Serif" font-size="11.00">0.2.1.1</text>
</g>
<!-- hw_mquery&#45;&gt;hw_hspec_hedgehog -->
<g id="edge2" class="edge">
<title>hw_mquery&#45;&gt;hw_hspec_hedgehog</title>
<path fill="none" stroke="#aaaaaa" stroke-dasharray="5,2" d="M148.94,-211.08C149.86,-244.93 157.01,-319.44 200.56,-357.6 252.63,-403.23 285.7,-373.08 354,-384.4 376.64,-388.15 383.95,-383.28 405,-392.4 420.1,-398.94 434.76,-409.69 446.5,-419.74"/>
<polygon fill="#aaaaaa" stroke="#aaaaaa" points="443.95,-422.16 453.74,-426.21 448.61,-416.93 443.95,-422.16"/>
<text xml:space="preserve" text-anchor="middle" x="210.28" y="-327.4" font-family="Times,serif" font-size="14.00">test</text>
</g>
<!-- hw_json_simd -->
<g id="node7" class="node">
<title>hw_json_simd</title>
<path fill="#d5f5e3" stroke="black" d="M273.32,-216.4C273.32,-216.4 214.68,-216.4 214.68,-216.4 208.68,-216.4 202.68,-210.4 202.68,-204.4 202.68,-204.4 202.68,-180.8 202.68,-180.8 202.68,-174.8 208.68,-168.8 214.68,-168.8 214.68,-168.8 273.32,-168.8 273.32,-168.8 279.32,-168.8 285.32,-174.8 285.32,-180.8 285.32,-180.8 285.32,-204.4 285.32,-204.4 285.32,-210.4 279.32,-216.4 273.32,-216.4"/>
<text xml:space="preserve" text-anchor="middle" x="244" y="-202.5" font-family="Helvetica,sans-Serif" font-size="11.00">hw&#45;json&#45;simd</text>
<text xml:space="preserve" text-anchor="middle" x="244" y="-189.3" font-family="Helvetica,sans-Serif" font-size="11.00">0.1.1.2</text>
<text xml:space="preserve" text-anchor="middle" x="244" y="-176.1" font-family="Helvetica,sans-Serif" font-size="11.00">(x86_64 only)</text>
</g>
<!-- hw_json_simd&#45;&gt;hw_prim -->
<g id="edge3" class="edge">
<title>hw_json_simd&#45;&gt;hw_prim</title>
<path fill="none" stroke="#666666" d="M246.21,-216.84C248.43,-240.33 251.88,-276.66 254.28,-301.93"/>
<polygon fill="#666666" stroke="#666666" points="250.79,-302.2 255.22,-311.83 257.76,-301.54 250.79,-302.2"/>
</g>
<!-- hw_polysemy -->
<g id="node8" class="node">
<title>hw_polysemy</title>
<path fill="#d5f5e3" stroke="black" d="M84.09,-210.6C84.09,-210.6 27.91,-210.6 27.91,-210.6 21.91,-210.6 15.91,-204.6 15.91,-198.6 15.91,-198.6 15.91,-186.6 15.91,-186.6 15.91,-180.6 21.91,-174.6 27.91,-174.6 27.91,-174.6 84.09,-174.6 84.09,-174.6 90.09,-174.6 96.09,-180.6 96.09,-186.6 96.09,-186.6 96.09,-198.6 96.09,-198.6 96.09,-204.6 90.09,-210.6 84.09,-210.6"/>
<text xml:space="preserve" text-anchor="middle" x="56" y="-195.9" font-family="Helvetica,sans-Serif" font-size="11.00">hw&#45;polysemy</text>
<text xml:space="preserve" text-anchor="middle" x="56" y="-182.7" font-family="Helvetica,sans-Serif" font-size="11.00">0.3.1.2</text>
</g>
<!-- hw_polysemy&#45;&gt;hw_prelude -->
<g id="edge4" class="edge">
<title>hw_polysemy&#45;&gt;hw_prelude</title>
<path fill="none" stroke="#666666" d="M59.7,-211.02C68.83,-249.31 96.2,-340.88 157,-384.4 175.3,-397.5 187.41,-381.32 207,-392.4 217.83,-398.52 227.18,-408.41 234.44,-417.93"/>
<polygon fill="#666666" stroke="#666666" points="231.48,-419.81 240.11,-425.95 237.2,-415.77 231.48,-419.81"/>
</g>
<!-- hw_bits -->
<g id="node9" class="node">
<title>hw_bits</title>
<path fill="#fcf3cf" stroke="black" d="M517,-210.6C517,-210.6 487,-210.6 487,-210.6 481,-210.6 475,-204.6 475,-198.6 475,-198.6 475,-186.6 475,-186.6 475,-180.6 481,-174.6 487,-174.6 487,-174.6 517,-174.6 517,-174.6 523,-174.6 529,-180.6 529,-186.6 529,-186.6 529,-198.6 529,-198.6 529,-204.6 523,-210.6 517,-210.6"/>
<text xml:space="preserve" text-anchor="middle" x="502" y="-195.9" font-family="Helvetica,sans-Serif" font-size="11.00">hw&#45;bits</text>
<text xml:space="preserve" text-anchor="middle" x="502" y="-182.7" font-family="Helvetica,sans-Serif" font-size="11.00">0.7.2.2</text>
</g>
<!-- hw_bits&#45;&gt;hw_hspec_hedgehog -->
<g id="edge8" class="edge">
<title>hw_bits&#45;&gt;hw_hspec_hedgehog</title>
<path fill="none" stroke="#aaaaaa" stroke-dasharray="5,2" d="M496.77,-210.97C493.04,-224.1 488.22,-242.62 485.56,-259.2 476.73,-314.17 473.64,-379.24 472.57,-415.84"/>
<polygon fill="#aaaaaa" stroke="#aaaaaa" points="469.08,-415.5 472.31,-425.59 476.07,-415.68 469.08,-415.5"/>
<text xml:space="preserve" text-anchor="middle" x="495.28" y="-327.4" font-family="Times,serif" font-size="14.00">test</text>
</g>
<!-- hw_bits&#45;&gt;hw_string_parse -->
<g id="edge6" class="edge">
<title>hw_bits&#45;&gt;hw_string_parse</title>
<path fill="none" stroke="#666666" d="M487.47,-210.9C462.65,-241.12 411.59,-306.16 379,-367.6 370.73,-383.19 363.69,-401.66 358.62,-416.6"/>
<polygon fill="#666666" stroke="#666666" points="355.39,-415.2 355.61,-425.8 362.04,-417.38 355.39,-415.2"/>
</g>
<!-- hw_bits&#45;&gt;hw_prim -->
<g id="edge5" class="edge">
<title>hw_bits&#45;&gt;hw_prim</title>
<path fill="none" stroke="#666666" d="M474.56,-209.82C464.33,-215.22 452.42,-220.78 441,-224.4 411.88,-233.63 400.9,-221.97 373,-234.4 353.4,-243.13 311.29,-280.17 283.57,-305.65"/>
<polygon fill="#666666" stroke="#666666" points="281.54,-302.76 276.58,-312.12 286.3,-307.9 281.54,-302.76"/>
</g>
<!-- hw_int -->
<g id="node18" class="node">
<title>hw_int</title>
<path fill="#f5f5f5" stroke="black" stroke-dasharray="5,2" d="M644,-349.6C644,-349.6 614,-349.6 614,-349.6 608,-349.6 602,-343.6 602,-337.6 602,-337.6 602,-325.6 602,-325.6 602,-319.6 608,-313.6 614,-313.6 614,-313.6 644,-313.6 644,-313.6 650,-313.6 656,-319.6 656,-325.6 656,-325.6 656,-337.6 656,-337.6 656,-343.6 650,-349.6 644,-349.6"/>
<text xml:space="preserve" text-anchor="middle" x="629" y="-328.3" font-family="Helvetica,sans-Serif" font-size="11.00">hw&#45;int</text>
</g>
<!-- hw_bits&#45;&gt;hw_int -->
<g id="edge7" class="edge">
<title>hw_bits&#45;&gt;hw_int</title>
<path fill="none" stroke="#666666" d="M507.55,-210.83C512.75,-224.06 521.86,-241.63 536,-251.2 555.36,-264.31 568.72,-245.98 588,-259.2 603.08,-269.54 613.33,-287.38 619.81,-302.64"/>
<polygon fill="#666666" stroke="#666666" points="616.46,-303.68 623.33,-311.74 622.99,-301.15 616.46,-303.68"/>
</g>
<!-- hw_simd -->
<g id="node10" class="node">
<title>hw_simd</title>
<path fill="#fdebd0" stroke="black" d="M762.32,-216.4C762.32,-216.4 703.68,-216.4 703.68,-216.4 697.68,-216.4 691.68,-210.4 691.68,-204.4 691.68,-204.4 691.68,-180.8 691.68,-180.8 691.68,-174.8 697.68,-168.8 703.68,-168.8 703.68,-168.8 762.32,-168.8 762.32,-168.8 768.32,-168.8 774.32,-174.8 774.32,-180.8 774.32,-180.8 774.32,-204.4 774.32,-204.4 774.32,-210.4 768.32,-216.4 762.32,-216.4"/>
<text xml:space="preserve" text-anchor="middle" x="733" y="-202.5" font-family="Helvetica,sans-Serif" font-size="11.00">hw&#45;simd</text>
<text xml:space="preserve" text-anchor="middle" x="733" y="-189.3" font-family="Helvetica,sans-Serif" font-size="11.00">0.1.2.2</text>
<text xml:space="preserve" text-anchor="middle" x="733" y="-176.1" font-family="Helvetica,sans-Serif" font-size="11.00">(x86_64 only)</text>
</g>
<!-- hw_simd&#45;&gt;hw_hspec_hedgehog -->
<g id="edge13" class="edge">
<title>hw_simd&#45;&gt;hw_hspec_hedgehog</title>
<path fill="none" stroke="#aaaaaa" stroke-dasharray="5,2" d="M691.21,-200.06C654.49,-207.88 602.11,-224.59 570.56,-259.2 531.42,-302.13 562.95,-334.62 533,-384.4 525.13,-397.48 513.77,-409.74 502.99,-419.74"/>
<polygon fill="#aaaaaa" stroke="#aaaaaa" points="500.82,-416.99 495.67,-426.24 505.47,-422.22 500.82,-416.99"/>
<text xml:space="preserve" text-anchor="middle" x="580.28" y="-327.4" font-family="Times,serif" font-size="14.00">test</text>
</g>
<!-- hw_simd&#45;&gt;hw_prim -->
<g id="edge10" class="edge">
<title>hw_simd&#45;&gt;hw_prim</title>
<path fill="none" stroke="#666666" d="M691.39,-200.97C650.76,-208.43 587.31,-220.78 533,-234.4 446.15,-256.19 347.91,-293.64 295.23,-314.82"/>
<polygon fill="#666666" stroke="#666666" points="294.06,-311.51 286.11,-318.51 296.69,-318 294.06,-311.51"/>
</g>
<!-- hw_simd&#45;&gt;hw_bits -->
<g id="edge9" class="edge">
<title>hw_simd&#45;&gt;hw_bits</title>
<path fill="none" stroke="#666666" d="M691.18,-192.6C640.94,-192.6 590.71,-192.6 540.47,-192.6"/>
<polygon fill="#666666" stroke="#666666" points="540.58,-189.1 530.58,-192.6 540.58,-196.1 540.58,-189.1"/>
</g>
<!-- hw_rankselect -->
<g id="node14" class="node">
<title>hw_rankselect</title>
<path fill="#f5f5f5" stroke="black" stroke-dasharray="5,2" d="M957.93,-349.6C957.93,-349.6 898.07,-349.6 898.07,-349.6 892.07,-349.6 886.07,-343.6 886.07,-337.6 886.07,-337.6 886.07,-325.6 886.07,-325.6 886.07,-319.6 892.07,-313.6 898.07,-313.6 898.07,-313.6 957.93,-313.6 957.93,-313.6 963.93,-313.6 969.93,-319.6 969.93,-325.6 969.93,-325.6 969.93,-337.6 969.93,-337.6 969.93,-343.6 963.93,-349.6 957.93,-349.6"/>
<text xml:space="preserve" text-anchor="middle" x="928" y="-328.3" font-family="Helvetica,sans-Serif" font-size="11.00">hw&#45;rankselect</text>
</g>
<!-- hw_simd&#45;&gt;hw_rankselect -->
<g id="edge11" class="edge">
<title>hw_simd&#45;&gt;hw_rankselect</title>
<path fill="none" stroke="#666666" d="M774.68,-206.06C805.3,-216.68 846.68,-234.22 877,-259.2 891.9,-271.48 904.55,-289.1 913.52,-303.76"/>
<polygon fill="#666666" stroke="#666666" points="910.29,-305.17 918.37,-312.04 916.33,-301.64 910.29,-305.17"/>
</g>
<!-- hw_rankselect_base -->
<g id="node15" class="node">
<title>hw_rankselect_base</title>
<path fill="#f5f5f5" stroke="black" stroke-dasharray="5,2" d="M1087.69,-349.6C1087.69,-349.6 1000.31,-349.6 1000.31,-349.6 994.31,-349.6 988.31,-343.6 988.31,-337.6 988.31,-337.6 988.31,-325.6 988.31,-325.6 988.31,-319.6 994.31,-313.6 1000.31,-313.6 1000.31,-313.6 1087.69,-313.6 1087.69,-313.6 1093.69,-313.6 1099.69,-319.6 1099.69,-325.6 1099.69,-325.6 1099.69,-337.6 1099.69,-337.6 1099.69,-343.6 1093.69,-349.6 1087.69,-349.6"/>
<text xml:space="preserve" text-anchor="middle" x="1044" y="-328.3" font-family="Helvetica,sans-Serif" font-size="11.00">hw&#45;rankselect&#45;base</text>
</g>
<!-- hw_simd&#45;&gt;hw_rankselect_base -->
<g id="edge12" class="edge">
<title>hw_simd&#45;&gt;hw_rankselect_base</title>
<path fill="none" stroke="#666666" d="M774.8,-206.15C816.46,-218.43 882.34,-237.28 940,-251.2 957.2,-255.35 963.62,-250.45 979,-259.2 998.18,-270.12 1014.83,-288.69 1026.47,-304.16"/>
<polygon fill="#666666" stroke="#666666" points="1023.48,-306 1032.17,-312.06 1029.16,-301.91 1023.48,-306"/>
</g>
<!-- hw_dsv -->
<g id="node11" class="node">
<title>hw_dsv</title>
<path fill="#e8daef" stroke="black" d="M749.87,-90.8C749.87,-90.8 674.13,-90.8 674.13,-90.8 668.13,-90.8 662.13,-84.8 662.13,-78.8 662.13,-78.8 662.13,-55.2 662.13,-55.2 662.13,-49.2 668.13,-43.2 674.13,-43.2 674.13,-43.2 749.87,-43.2 749.87,-43.2 755.87,-43.2 761.87,-49.2 761.87,-55.2 761.87,-55.2 761.87,-78.8 761.87,-78.8 761.87,-84.8 755.87,-90.8 749.87,-90.8"/>
<text xml:space="preserve" text-anchor="middle" x="712" y="-76.9" font-family="Helvetica,sans-Serif" font-size="11.00">hw&#45;dsv</text>
<text xml:space="preserve" text-anchor="middle" x="712" y="-63.7" font-family="Helvetica,sans-Serif" font-size="11.00">0.4.1.2</text>
<text xml:space="preserve" text-anchor="middle" x="712" y="-50.5" font-family="Helvetica,sans-Serif" font-size="11.00">DSV/CSV Parser</text>
</g>
<!-- hw_dsv&#45;&gt;hw_hspec_hedgehog -->
<g id="edge19" class="edge">
<title>hw_dsv&#45;&gt;hw_hspec_hedgehog</title>
<path fill="none" stroke="#aaaaaa" stroke-dasharray="5,2" d="M661.77,-72.21C590.26,-79.43 465.1,-97.09 441,-133.6 382.03,-222.94 432.36,-359.28 458.55,-417.12"/>
<polygon fill="#aaaaaa" stroke="#aaaaaa" points="455.25,-418.33 462.64,-425.92 461.6,-415.38 455.25,-418.33"/>
<text xml:space="preserve" text-anchor="middle" x="423.51" y="-238.6" font-family="Times,serif" font-size="14.00">test</text>
</g>
<!-- hw_dsv&#45;&gt;hw_prim -->
<g id="edge15" class="edge">
<title>hw_dsv&#45;&gt;hw_prim</title>
<path fill="none" stroke="#666666" d="M661.75,-69.68C559.52,-73.59 334.87,-84.82 310,-108.8 291.33,-126.8 300.07,-199.19 294,-224.4 287.45,-251.59 276.64,-281.61 268.4,-302.77"/>
<polygon fill="#666666" stroke="#666666" points="265.23,-301.26 264.8,-311.85 271.74,-303.84 265.23,-301.26"/>
</g>
<!-- hw_dsv&#45;&gt;hw_bits -->
<g id="edge14" class="edge">
<title>hw_dsv&#45;&gt;hw_bits</title>
<path fill="none" stroke="#666666" d="M661.66,-71.65C609.17,-76.57 531.82,-87.31 512,-108.8 498.84,-123.07 496.72,-145.1 497.69,-162.85"/>
<polygon fill="#666666" stroke="#666666" points="494.2,-163.17 498.61,-172.8 501.17,-162.52 494.2,-163.17"/>
</g>
<!-- hw_dsv&#45;&gt;hw_simd -->
<g id="edge16" class="edge">
<title>hw_dsv&#45;&gt;hw_simd</title>
<path fill="none" stroke="#666666" d="M715.95,-91.25C719.12,-109.89 723.61,-136.33 727.19,-157.39"/>
<polygon fill="#666666" stroke="#666666" points="723.69,-157.69 728.81,-166.96 730.59,-156.52 723.69,-157.69"/>
</g>
<!-- hw_dsv&#45;&gt;hw_rankselect -->
<g id="edge17" class="edge">
<title>hw_dsv&#45;&gt;hw_rankselect</title>
<path fill="none" stroke="#666666" d="M756.05,-91.22C761.08,-93.8 766.14,-96.38 771,-98.8 780.25,-103.41 784.31,-101.89 792,-108.8 854.53,-165.05 898.05,-256.83 917.13,-302.68"/>
<polygon fill="#666666" stroke="#666666" points="913.87,-303.96 920.88,-311.9 920.36,-301.32 913.87,-303.96"/>
</g>
<!-- hw_dsv&#45;&gt;hw_rankselect_base -->
<g id="edge18" class="edge">
<title>hw_dsv&#45;&gt;hw_rankselect_base</title>
<path fill="none" stroke="#666666" d="M753.3,-91.22C759.14,-94.01 765.15,-96.63 771,-98.8 789.4,-105.62 795.59,-102.02 814,-108.8 914.57,-145.82 994.33,-253.28 1027.42,-303.78"/>
<polygon fill="#666666" stroke="#666666" points="1024.41,-305.58 1032.77,-312.09 1030.3,-301.79 1024.41,-305.58"/>
</g>
<!-- hw_json -->
<g id="node12" class="node">
<title>hw_json</title>
<path fill="#e8daef" stroke="black" d="M848.4,-90.8C848.4,-90.8 791.6,-90.8 791.6,-90.8 785.6,-90.8 779.6,-84.8 779.6,-78.8 779.6,-78.8 779.6,-55.2 779.6,-55.2 779.6,-49.2 785.6,-43.2 791.6,-43.2 791.6,-43.2 848.4,-43.2 848.4,-43.2 854.4,-43.2 860.4,-49.2 860.4,-55.2 860.4,-55.2 860.4,-78.8 860.4,-78.8 860.4,-84.8 854.4,-90.8 848.4,-90.8"/>
<text xml:space="preserve" text-anchor="middle" x="820" y="-76.9" font-family="Helvetica,sans-Serif" font-size="11.00">hw&#45;json</text>
<text xml:space="preserve" text-anchor="middle" x="820" y="-63.7" font-family="Helvetica,sans-Serif" font-size="11.00">1.3.3.0</text>
<text xml:space="preserve" text-anchor="middle" x="820" y="-50.5" font-family="Helvetica,sans-Serif" font-size="11.00">JSON Parser</text>
</g>
<!-- hw_json&#45;&gt;hw_hspec_hedgehog -->
<g id="edge31" class="edge">
<title>hw_json&#45;&gt;hw_hspec_hedgehog</title>
<path fill="none" stroke="#aaaaaa" stroke-dasharray="5,2" d="M785.94,-91.27C781.05,-94.06 775.99,-96.66 771,-98.8 742.13,-111.18 659.6,-115.4 634,-133.6 594.57,-161.62 609.27,-191.3 574,-224.4 567.48,-230.52 563,-228.21 556.56,-234.4 547.18,-243.42 546.72,-247.51 541,-259.2 520.51,-301.02 521.26,-313.96 505,-357.6 497.6,-377.47 489.11,-399.83 482.6,-416.91"/>
<polygon fill="#aaaaaa" stroke="#aaaaaa" points="479.47,-415.29 479.17,-425.88 486.01,-417.78 479.47,-415.29"/>
<text xml:space="preserve" text-anchor="middle" x="566.28" y="-238.6" font-family="Times,serif" font-size="14.00">test</text>
</g>
<!-- hw_json&#45;&gt;hw_prim -->
<g id="edge21" class="edge">
<title>hw_json&#45;&gt;hw_prim</title>
<path fill="none" stroke="#666666" d="M788.23,-91.29C782.72,-94.34 776.87,-97.02 771,-98.8 733.24,-110.26 450.99,-90.55 416,-108.8 374.85,-130.27 303.55,-248.81 272.35,-303.25"/>
<polygon fill="#666666" stroke="#666666" points="269.32,-301.49 267.42,-311.92 275.41,-304.96 269.32,-301.49"/>
</g>
<!-- hw_json&#45;&gt;hw_mquery -->
<g id="edge22" class="edge">
<title>hw_json&#45;&gt;hw_mquery</title>
<path fill="none" stroke="#666666" d="M788.51,-91.17C782.92,-94.28 776.97,-97.01 771,-98.8 721.93,-113.52 360.89,-102.86 310,-108.8 257.63,-114.91 238.65,-105.56 194,-133.6 181.81,-141.25 171.62,-153.44 164.04,-164.67"/>
<polygon fill="#666666" stroke="#666666" points="161.24,-162.55 158.86,-172.88 167.16,-166.28 161.24,-162.55"/>
</g>
<!-- hw_json&#45;&gt;hw_json_simd -->
<g id="edge24" class="edge">
<title>hw_json&#45;&gt;hw_json_simd</title>
<path fill="none" stroke="#666666" d="M788.51,-91.16C782.92,-94.27 776.97,-97 771,-98.8 725.77,-112.41 390.33,-92.48 346,-108.8 317.29,-119.37 290.66,-141.6 271.81,-160.36"/>
<polygon fill="#666666" stroke="#666666" points="269.5,-157.73 265.03,-167.33 274.51,-162.61 269.5,-157.73"/>
<text xml:space="preserve" text-anchor="middle" x="367" y="-113" font-family="Times,serif" font-size="14.00">x86_64</text>
</g>
<!-- hw_json&#45;&gt;hw_bits -->
<g id="edge20" class="edge">
<title>hw_json&#45;&gt;hw_bits</title>
<path fill="none" stroke="#666666" d="M788.2,-91.21C782.7,-94.27 776.85,-96.97 771,-98.8 747.01,-106.29 566.19,-95.28 545,-108.8 526,-120.92 514.95,-144.32 508.83,-163.16"/>
<polygon fill="#666666" stroke="#666666" points="505.48,-162.13 506.04,-172.71 512.2,-164.09 505.48,-162.13"/>
</g>
<!-- hw_json&#45;&gt;hw_simd -->
<g id="edge23" class="edge">
<title>hw_json&#45;&gt;hw_simd</title>
<path fill="none" stroke="#666666" d="M784.84,-91.15C780.26,-93.85 775.57,-96.48 771,-98.8 760.34,-104.23 753.46,-99.44 746,-108.8 735.27,-122.26 731.68,-140.96 730.92,-157.18"/>
<polygon fill="#666666" stroke="#666666" points="727.43,-156.9 730.83,-166.93 734.43,-156.97 727.43,-156.9"/>
<text xml:space="preserve" text-anchor="middle" x="767" y="-113" font-family="Times,serif" font-size="14.00">x86_64</text>
</g>
<!-- hw_json&#45;&gt;hw_rankselect -->
<g id="edge27" class="edge">
<title>hw_json&#45;&gt;hw_rankselect</title>
<path fill="none" stroke="#666666" d="M856.15,-91.27C860.45,-93.87 864.8,-96.44 869,-98.8 877.66,-103.67 883.06,-100.83 889,-108.8 932.13,-166.66 933.34,-256.39 930.66,-301.95"/>
<polygon fill="#666666" stroke="#666666" points="927.18,-301.58 929.96,-311.8 934.16,-302.07 927.18,-301.58"/>
</g>
<!-- hw_json&#45;&gt;hw_rankselect_base -->
<g id="edge28" class="edge">
<title>hw_json&#45;&gt;hw_rankselect_base</title>
<path fill="none" stroke="#666666" d="M852.44,-91.21C857.77,-94.19 863.4,-96.87 869,-98.8 889.27,-105.8 948.14,-95.54 965,-108.8 972.96,-115.06 1015.98,-244.68 1034.98,-302.81"/>
<polygon fill="#666666" stroke="#666666" points="1031.54,-303.57 1037.97,-311.99 1038.2,-301.4 1031.54,-303.57"/>
</g>
<!-- hw_balancedparens -->
<g id="node16" class="node">
<title>hw_balancedparens</title>
<path fill="#f5f5f5" stroke="black" stroke-dasharray="5,2" d="M774,-349.6C774,-349.6 686,-349.6 686,-349.6 680,-349.6 674,-343.6 674,-337.6 674,-337.6 674,-325.6 674,-325.6 674,-319.6 680,-313.6 686,-313.6 686,-313.6 774,-313.6 774,-313.6 780,-313.6 786,-319.6 786,-325.6 786,-325.6 786,-337.6 786,-337.6 786,-343.6 780,-349.6 774,-349.6"/>
<text xml:space="preserve" text-anchor="middle" x="730" y="-328.3" font-family="Helvetica,sans-Serif" font-size="11.00">hw&#45;balancedparens</text>
</g>
<!-- hw_json&#45;&gt;hw_balancedparens -->
<g id="edge25" class="edge">
<title>hw_json&#45;&gt;hw_balancedparens</title>
<path fill="none" stroke="#666666" d="M817.22,-91.1C813.02,-122.13 803.71,-178.65 787,-224.4 776.68,-252.65 759.98,-282.65 747.32,-303.53"/>
<polygon fill="#666666" stroke="#666666" points="744.37,-301.65 742.09,-312 750.33,-305.33 744.37,-301.65"/>
</g>
<!-- hw_parser -->
<g id="node17" class="node">
<title>hw_parser</title>
<path fill="#f5f5f5" stroke="black" stroke-dasharray="5,2" d="M856.45,-349.6C856.45,-349.6 815.55,-349.6 815.55,-349.6 809.55,-349.6 803.55,-343.6 803.55,-337.6 803.55,-337.6 803.55,-325.6 803.55,-325.6 803.55,-319.6 809.55,-313.6 815.55,-313.6 815.55,-313.6 856.45,-313.6 856.45,-313.6 862.45,-313.6 868.45,-319.6 868.45,-325.6 868.45,-325.6 868.45,-337.6 868.45,-337.6 868.45,-343.6 862.45,-349.6 856.45,-349.6"/>
<text xml:space="preserve" text-anchor="middle" x="836" y="-328.3" font-family="Helvetica,sans-Serif" font-size="11.00">hw&#45;parser</text>
</g>
<!-- hw_json&#45;&gt;hw_parser -->
<g id="edge26" class="edge">
<title>hw_json&#45;&gt;hw_parser</title>
<path fill="none" stroke="#666666" d="M821.39,-90.84C824.31,-138.67 831.04,-249.25 834.25,-301.82"/>
<polygon fill="#666666" stroke="#666666" points="830.75,-302.01 834.85,-311.78 837.74,-301.58 830.75,-302.01"/>
</g>
<!-- hw_json_simple_cursor -->
<g id="node19" class="node">
<title>hw_json_simple_cursor</title>
<path fill="#f5f5f5" stroke="black" stroke-dasharray="5,2" d="M1228.79,-349.6C1228.79,-349.6 1129.21,-349.6 1129.21,-349.6 1123.21,-349.6 1117.21,-343.6 1117.21,-337.6 1117.21,-337.6 1117.21,-325.6 1117.21,-325.6 1117.21,-319.6 1123.21,-313.6 1129.21,-313.6 1129.21,-313.6 1228.79,-313.6 1228.79,-313.6 1234.79,-313.6 1240.79,-319.6 1240.79,-325.6 1240.79,-325.6 1240.79,-337.6 1240.79,-337.6 1240.79,-343.6 1234.79,-349.6 1228.79,-349.6"/>
<text xml:space="preserve" text-anchor="middle" x="1179" y="-328.3" font-family="Helvetica,sans-Serif" font-size="11.00">hw&#45;json&#45;simple&#45;cursor</text>
</g>
<!-- hw_json&#45;&gt;hw_json_simple_cursor -->
<g id="edge29" class="edge">
<title>hw_json&#45;&gt;hw_json_simple_cursor</title>
<path fill="none" stroke="#666666" d="M852.41,-91.29C857.75,-94.26 863.38,-96.91 869,-98.8 917.21,-115.01 937.08,-86.92 983,-108.8 1021.17,-126.99 1048.37,-218.26 1054,-224.4 1073.55,-245.72 1086.5,-241.02 1109,-259.2 1126.11,-273.03 1143.43,-290.66 1156.56,-304.94"/>
<polygon fill="#666666" stroke="#666666" points="1153.84,-307.14 1163.14,-312.21 1159.03,-302.45 1153.84,-307.14"/>
</g>
<!-- hw_json_standard_cursor -->
<g id="node20" class="node">
<title>hw_json_standard_cursor</title>
<path fill="#f5f5f5" stroke="black" stroke-dasharray="5,2" d="M1381.3,-349.6C1381.3,-349.6 1270.7,-349.6 1270.7,-349.6 1264.7,-349.6 1258.7,-343.6 1258.7,-337.6 1258.7,-337.6 1258.7,-325.6 1258.7,-325.6 1258.7,-319.6 1264.7,-313.6 1270.7,-313.6 1270.7,-313.6 1381.3,-313.6 1381.3,-313.6 1387.3,-313.6 1393.3,-319.6 1393.3,-325.6 1393.3,-325.6 1393.3,-337.6 1393.3,-337.6 1393.3,-343.6 1387.3,-349.6 1381.3,-349.6"/>
<text xml:space="preserve" text-anchor="middle" x="1326" y="-328.3" font-family="Helvetica,sans-Serif" font-size="11.00">hw&#45;json&#45;standard&#45;cursor</text>
</g>
<!-- hw_json&#45;&gt;hw_json_standard_cursor -->
<g id="edge30" class="edge">
<title>hw_json&#45;&gt;hw_json_standard_cursor</title>
<path fill="none" stroke="#666666" d="M852.11,-91.22C857.54,-94.23 863.27,-96.92 869,-98.8 927.43,-117.95 948.5,-89.85 1007,-108.8 1131.96,-149.28 1251.4,-256.52 1301.41,-305.53"/>
<polygon fill="#666666" stroke="#666666" points="1298.73,-307.81 1308.3,-312.36 1303.66,-302.83 1298.73,-307.81"/>
</g>
<!-- hw_xml -->
<g id="node13" class="node">
<title>hw_xml</title>
<path fill="#e8daef" stroke="black" d="M940.04,-90.8C940.04,-90.8 889.96,-90.8 889.96,-90.8 883.96,-90.8 877.96,-84.8 877.96,-78.8 877.96,-78.8 877.96,-55.2 877.96,-55.2 877.96,-49.2 883.96,-43.2 889.96,-43.2 889.96,-43.2 940.04,-43.2 940.04,-43.2 946.04,-43.2 952.04,-49.2 952.04,-55.2 952.04,-55.2 952.04,-78.8 952.04,-78.8 952.04,-84.8 946.04,-90.8 940.04,-90.8"/>
<text xml:space="preserve" text-anchor="middle" x="915" y="-76.9" font-family="Helvetica,sans-Serif" font-size="11.00">hw&#45;xml</text>
<text xml:space="preserve" text-anchor="middle" x="915" y="-63.7" font-family="Helvetica,sans-Serif" font-size="11.00">0.5.1.2</text>
<text xml:space="preserve" text-anchor="middle" x="915" y="-50.5" font-family="Helvetica,sans-Serif" font-size="11.00">XML Parser</text>
</g>
<!-- hw_xml&#45;&gt;hw_hspec_hedgehog -->
<g id="edge38" class="edge">
<title>hw_xml&#45;&gt;hw_hspec_hedgehog</title>
<path fill="none" stroke="#aaaaaa" stroke-dasharray="5,2" d="M952.35,-74.46C1089.59,-99.65 1550.58,-197.81 1405,-357.6 1347.07,-421.19 748.02,-439.09 541.52,-443.39"/>
<polygon fill="#aaaaaa" stroke="#aaaaaa" points="541.67,-439.89 531.75,-443.59 541.82,-446.89 541.67,-439.89"/>
<text xml:space="preserve" text-anchor="middle" x="1424.09" y="-238.6" font-family="Times,serif" font-size="14.00">test</text>
</g>
<!-- hw_xml&#45;&gt;hw_prim -->
<g id="edge33" class="edge">
<title>hw_xml&#45;&gt;hw_prim</title>
<path fill="none" stroke="#666666" d="M885.29,-91.21C880.1,-94.27 874.57,-96.98 869,-98.8 819.11,-115.12 685.3,-104.32 633,-108.8 547.27,-116.14 516.19,-91.77 441,-133.6 395.51,-158.91 407.29,-191.43 367,-224.4 359.61,-230.44 355.6,-228.63 348,-234.4 320.99,-254.88 294.91,-283.67 277.65,-304.42"/>
<polygon fill="#666666" stroke="#666666" points="274.95,-302.19 271.32,-312.15 280.37,-306.62 274.95,-302.19"/>
</g>
<!-- hw_xml&#45;&gt;hw_bits -->
<g id="edge32" class="edge">
<title>hw_xml&#45;&gt;hw_bits</title>
<path fill="none" stroke="#666666" d="M884.98,-91.22C879.88,-94.23 874.45,-96.92 869,-98.8 811.7,-118.54 793.03,-100.48 733,-108.8 678.62,-116.34 663.69,-115.1 612,-133.6 586.67,-142.67 559.94,-156.65 539.17,-168.61"/>
<polygon fill="#666666" stroke="#666666" points="537.64,-165.45 530.79,-173.53 541.19,-171.49 537.64,-165.45"/>
</g>
<!-- hw_xml&#45;&gt;hw_rankselect -->
<g id="edge36" class="edge">
<title>hw_xml&#45;&gt;hw_rankselect</title>
<path fill="none" stroke="#666666" d="M952.5,-72.33C975.56,-77.15 1003.41,-87.32 1018,-108.8 1040.66,-142.15 977.25,-252.4 945.24,-303.79"/>
<polygon fill="#666666" stroke="#666666" points="942.46,-301.63 940.09,-311.96 948.38,-305.36 942.46,-301.63"/>
</g>
<!-- hw_xml&#45;&gt;hw_rankselect_base -->
<g id="edge37" class="edge">
<title>hw_xml&#45;&gt;hw_rankselect_base</title>
<path fill="none" stroke="#666666" d="M952.29,-70.1C979.61,-73.8 1015.08,-83.54 1034,-108.8 1076.74,-165.87 1062.94,-256.26 1051.99,-302.03"/>
<polygon fill="#666666" stroke="#666666" points="1048.6,-301.16 1049.54,-311.71 1055.38,-302.87 1048.6,-301.16"/>
</g>
<!-- hw_xml&#45;&gt;hw_balancedparens -->
<g id="edge34" class="edge">
<title>hw_xml&#45;&gt;hw_balancedparens</title>
<path fill="none" stroke="#666666" d="M882.44,-91.26C878.03,-93.98 873.47,-96.57 869,-98.8 836.57,-114.97 827.54,-118.52 792,-125.6 777.05,-128.58 665.46,-122.51 655,-133.6 608.56,-182.83 668.35,-263.74 705.13,-304.86"/>
<polygon fill="#666666" stroke="#666666" points="702.45,-307.12 711.78,-312.13 707.61,-302.39 702.45,-307.12"/>
</g>
<!-- hw_xml&#45;&gt;hw_parser -->
<g id="edge35" class="edge">
<title>hw_xml&#45;&gt;hw_parser</title>
<path fill="none" stroke="#666666" d="M937.37,-91.16C945.78,-102.62 951.3,-116.01 942,-125.6 921.64,-146.58 699.36,-112.62 679,-133.6 650.9,-162.57 654.91,-192.02 679,-224.4 711.13,-267.58 752.83,-225.75 795,-259.2 809.24,-270.49 819.45,-288.18 826.12,-303.12"/>
<polygon fill="#666666" stroke="#666666" points="822.73,-304.08 829.78,-311.99 829.2,-301.41 822.73,-304.08"/>
</g>
</g>
</svg>
